<?xml version="1.0" encoding="UTF-8"?>
<svg id="Layer_2" data-name="Layer 2" xmlns="http://www.w3.org/2000/svg" viewBox="0 0 443.5 320.87">
  <defs>
    <style>
      .cls-1 {
        fill: none;
      }

      .cls-1, .cls-2, .cls-3, .cls-4 {
        stroke-miterlimit: 10;
        stroke-width: 20px;
      }

      .cls-1, .cls-2, .cls-4 {
        stroke: #1a1416;
      }

      .cls-2 {
        fill: #e68f24;
      }

      .cls-3 {
        stroke: #231f20;
      }

      .cls-3, .cls-5, .cls-4 {
        fill: #fff;
      }

      .cls-6 {
        fill: #1a1416;
      }
    </style>
  </defs>
  <g id="Layer_1-2" data-name="Layer 1">
    <polygon class="cls-5" points="195.92 320.87 195.92 302.3 99.32 302.3 99.32 281.12 0 281.12 0 78.27 99.32 78.27 99.32 57.1 142.99 57.1 122.66 36.77 159.43 0 216.53 57.1 227.3 57.1 284.41 0 321.17 36.77 300.85 57.1 344.52 57.1 344.52 78.29 443.5 78.29 443.5 281.14 344.52 281.14 344.52 302.3 247.92 302.3 247.92 320.87 195.92 320.87"/>
    <polygon class="cls-5" points="427.5 94.29 328.52 94.29 328.52 73.1 262.22 73.1 298.55 36.77 284.41 22.63 233.93 73.1 209.91 73.1 159.43 22.63 145.29 36.77 181.62 73.1 115.32 73.1 115.32 94.27 16 94.27 16 265.12 115.32 265.12 115.32 286.3 211.92 286.3 211.92 304.87 231.92 304.87 231.92 286.3 328.52 286.3 328.52 265.14 427.5 265.14 427.5 94.29"/>
    <g>
      <g>
        <rect class="cls-2" x="125.32" y="83.1" width="193.2" height="193.2"/>
        <rect class="cls-4" x="26" y="104.27" width="99.32" height="150.85"/>
        <rect class="cls-6" x="125.32" y="113.12" width="193.2" height="27.85"/>
        <rect class="cls-6" x="125.32" y="165.78" width="193.2" height="27.85"/>
        <rect class="cls-6" x="125.32" y="218.43" width="193.2" height="27.85"/>
        <line class="cls-1" x1="205.76" y1="83.1" x2="152.36" y2="29.7"/>
        <line class="cls-1" x1="238.07" y1="83.1" x2="291.48" y2="29.7"/>
        <line class="cls-1" x1="221.92" y1="284.12" x2="221.92" y2="304.87"/>
        <line class="cls-3" x1="60.69" y1="192.69" x2="29.4" y2="192.69"/>
      </g>
      <rect class="cls-4" x="318.18" y="104.29" width="99.32" height="150.85" transform="translate(735.69 359.43) rotate(-180)"/>
      <line class="cls-3" x1="382.81" y1="192.71" x2="414.1" y2="192.71"/>
    </g>
  </g>
</svg>